<svg xmlns="http://www.w3.org/2000/svg" xmlns:xlink="http://www.w3.org/1999/xlink" width="500" zoomAndPan="magnify" viewBox="0 0 375 374.999991" height="500" preserveAspectRatio="xMidYMid meet" version="1.0"><defs><g/><clipPath id="fab4d066ed"><path d="M 166 155 L 180 155 L 180 213.984375 L 166 213.984375 Z M 166 155 " clip-rule="nonzero"/></clipPath><clipPath id="1cf7e14a3e"><path d="M 148 119.484375 L 162 119.484375 L 162 191 L 148 191 Z M 148 119.484375 " clip-rule="nonzero"/></clipPath></defs><rect x="-37.5" width="450" fill="#ffffff" y="-37.499999" height="449.999989" fill-opacity="1"/><rect x="-37.5" width="450" fill="#ffffff" y="-37.499999" height="449.999989" fill-opacity="1"/><rect x="-37.5" width="450" fill="#ffffff" y="-37.499999" height="449.999989" fill-opacity="1"/><path fill="#5e17eb" d="M 234.9375 174.539062 L 222.035156 177.777344 L 222.035156 145.417969 L 234.9375 142.175781 Z M 234.9375 174.539062 " fill-opacity="1" fill-rule="nonzero"/><path fill="#5fd4e1" d="M 216.496094 164.8125 L 203.59375 168.054688 L 203.59375 132.453125 L 216.496094 129.210938 Z M 216.496094 164.8125 " fill-opacity="1" fill-rule="nonzero"/><path fill="#5e17eb" d="M 198.027344 186.898438 L 185.125 190.140625 L 185.125 148.027344 L 198.027344 144.785156 Z M 198.027344 186.898438 " fill-opacity="1" fill-rule="nonzero"/><g clip-path="url(#fab4d066ed)"><path fill="#5e17eb" d="M 179.558594 210.773438 L 166.65625 214.011719 L 166.65625 158.933594 L 179.558594 155.691406 Z M 179.558594 210.773438 " fill-opacity="1" fill-rule="nonzero"/></g><g clip-path="url(#1cf7e14a3e)"><path fill="#5fd4e1" d="M 161.117188 119.457031 L 161.117188 187.503906 L 148.214844 190.746094 L 148.214844 122.699219 Z M 161.117188 119.457031 " fill-opacity="1" fill-rule="nonzero"/></g><g fill="#5e17eb" fill-opacity="1"><g transform="translate(98.23873, 250.271447)"><g><path d="M 10.46875 -21.84375 C 13.695312 -21.84375 16.535156 -21.039062 18.984375 -19.4375 L 16.90625 -15.15625 C 15.78125 -15.8125 14.566406 -16.347656 13.265625 -16.765625 C 11.972656 -17.191406 10.882812 -17.40625 10 -17.40625 C 8.414062 -17.40625 7.625 -16.878906 7.625 -15.828125 C 7.625 -15.148438 8.015625 -14.601562 8.796875 -14.1875 C 9.578125 -13.78125 10.523438 -13.425781 11.640625 -13.125 C 12.765625 -12.832031 13.882812 -12.472656 15 -12.046875 C 16.125 -11.628906 17.078125 -10.945312 17.859375 -10 C 18.648438 -9.050781 19.046875 -7.859375 19.046875 -6.421875 C 19.046875 -4.335938 18.234375 -2.710938 16.609375 -1.546875 C 14.984375 -0.390625 12.914062 0.1875 10.40625 0.1875 C 8.613281 0.1875 6.84375 -0.117188 5.09375 -0.734375 C 3.34375 -1.359375 1.820312 -2.203125 0.53125 -3.265625 L 2.65625 -7.5 C 3.75 -6.550781 5.035156 -5.773438 6.515625 -5.171875 C 7.992188 -4.566406 9.3125 -4.265625 10.46875 -4.265625 C 11.34375 -4.265625 12.023438 -4.421875 12.515625 -4.734375 C 13.015625 -5.054688 13.265625 -5.523438 13.265625 -6.140625 C 13.265625 -6.734375 12.984375 -7.226562 12.421875 -7.625 C 11.859375 -8.03125 11.15625 -8.332031 10.3125 -8.53125 C 9.46875 -8.726562 8.550781 -8.988281 7.5625 -9.3125 C 6.570312 -9.644531 5.65625 -10.003906 4.8125 -10.390625 C 3.96875 -10.785156 3.265625 -11.410156 2.703125 -12.265625 C 2.140625 -13.117188 1.859375 -14.144531 1.859375 -15.34375 C 1.859375 -17.3125 2.644531 -18.882812 4.21875 -20.0625 C 5.789062 -21.25 7.875 -21.84375 10.46875 -21.84375 Z M 10.46875 -21.84375 "/></g></g></g><g fill="#5e17eb" fill-opacity="1"><g transform="translate(124.99205, 250.271447)"><g><path d="M 2.78125 -23.4375 C 3.3125 -23.957031 3.988281 -24.21875 4.8125 -24.21875 C 5.632812 -24.21875 6.304688 -23.957031 6.828125 -23.4375 C 7.359375 -22.914062 7.625 -22.242188 7.625 -21.421875 C 7.625 -20.597656 7.359375 -19.914062 6.828125 -19.375 C 6.304688 -18.84375 5.632812 -18.578125 4.8125 -18.578125 C 3.988281 -18.578125 3.3125 -18.84375 2.78125 -19.375 C 2.257812 -19.914062 2 -20.597656 2 -21.421875 C 2 -22.242188 2.257812 -22.914062 2.78125 -23.4375 Z M 7.4375 0 L 2.125 0 L 2.125 -16.640625 L 7.4375 -16.640625 Z M 7.4375 0 "/></g></g></g><g fill="#5e17eb" fill-opacity="1"><g transform="translate(141.470282, 250.271447)"><g><path d="M 24.34375 -16.875 C 26.175781 -16.875 27.628906 -16.289062 28.703125 -15.125 C 29.785156 -13.96875 30.328125 -12.425781 30.328125 -10.5 L 30.328125 0 L 25.03125 0 L 25.03125 -9.015625 C 25.03125 -10.003906 24.769531 -10.78125 24.25 -11.34375 C 23.738281 -11.90625 23.039062 -12.1875 22.15625 -12.1875 C 21.164062 -12.164062 20.378906 -11.789062 19.796875 -11.0625 C 19.210938 -10.332031 18.921875 -9.390625 18.921875 -8.234375 L 18.921875 0 L 13.578125 0 L 13.578125 -9.015625 C 13.578125 -10.003906 13.320312 -10.78125 12.8125 -11.34375 C 12.3125 -11.90625 11.617188 -12.1875 10.734375 -12.1875 C 9.734375 -12.164062 8.929688 -11.785156 8.328125 -11.046875 C 7.734375 -10.304688 7.4375 -9.367188 7.4375 -8.234375 L 7.4375 0 L 2.125 0 L 2.125 -16.640625 L 7.4375 -16.640625 L 7.4375 -13.890625 C 8.570312 -15.835938 10.40625 -16.832031 12.9375 -16.875 C 14.269531 -16.875 15.425781 -16.539062 16.40625 -15.875 C 17.382812 -15.207031 18.078125 -14.285156 18.484375 -13.109375 C 19.578125 -15.578125 21.53125 -16.832031 24.34375 -16.875 Z M 24.34375 -16.875 "/></g></g></g><g fill="#5e17eb" fill-opacity="1"><g transform="translate(180.350036, 250.271447)"><g><path d="M 12.59375 -16.8125 C 14.9375 -16.8125 16.820312 -16.023438 18.25 -14.453125 C 19.675781 -12.878906 20.390625 -10.804688 20.390625 -8.234375 C 20.390625 -5.703125 19.691406 -3.664062 18.296875 -2.125 C 16.898438 -0.582031 15.039062 0.1875 12.71875 0.1875 C 10.53125 0.1875 8.832031 -0.613281 7.625 -2.21875 L 7.625 5.984375 L 2.28125 5.984375 L 2.28125 -16.640625 L 7.625 -16.640625 L 7.625 -14.4375 C 8.851562 -16.019531 10.507812 -16.8125 12.59375 -16.8125 Z M 11.296875 -4.046875 C 12.410156 -4.046875 13.3125 -4.453125 14 -5.265625 C 14.6875 -6.078125 15.03125 -7.117188 15.03125 -8.390625 C 15.03125 -9.671875 14.6875 -10.710938 14 -11.515625 C 13.3125 -12.316406 12.410156 -12.71875 11.296875 -12.71875 C 10.222656 -12.71875 9.34375 -12.316406 8.65625 -11.515625 C 7.96875 -10.710938 7.625 -9.671875 7.625 -8.390625 C 7.625 -7.097656 7.960938 -6.050781 8.640625 -5.25 C 9.316406 -4.445312 10.203125 -4.046875 11.296875 -4.046875 Z M 11.296875 -4.046875 "/></g></g></g><g fill="#5e17eb" fill-opacity="1"><g transform="translate(208.368447, 250.271447)"><g><path d="M 7.625 0 L 2.28125 0 L 2.28125 -22.890625 L 7.625 -22.890625 Z M 7.625 0 "/></g></g></g><g fill="#5e17eb" fill-opacity="1"><g transform="translate(225.155249, 250.271447)"><g><path d="M 2.78125 -23.4375 C 3.3125 -23.957031 3.988281 -24.21875 4.8125 -24.21875 C 5.632812 -24.21875 6.304688 -23.957031 6.828125 -23.4375 C 7.359375 -22.914062 7.625 -22.242188 7.625 -21.421875 C 7.625 -20.597656 7.359375 -19.914062 6.828125 -19.375 C 6.304688 -18.84375 5.632812 -18.578125 4.8125 -18.578125 C 3.988281 -18.578125 3.3125 -18.84375 2.78125 -19.375 C 2.257812 -19.914062 2 -20.597656 2 -21.421875 C 2 -22.242188 2.257812 -22.914062 2.78125 -23.4375 Z M 7.4375 0 L 2.125 0 L 2.125 -16.640625 L 7.4375 -16.640625 Z M 7.4375 0 "/></g></g></g><g fill="#5fd4e1" fill-opacity="1"><g transform="translate(241.626557, 250.271447)"><g><path d="M 18.171875 -17.28125 L 7.65625 -17.28125 L 7.65625 -12.28125 L 17.34375 -12.28125 L 17.34375 -7.96875 L 7.65625 -7.96875 L 7.65625 0 L 2.15625 0 L 2.15625 -21.609375 L 18.171875 -21.609375 Z M 18.171875 -17.28125 "/></g></g></g><g fill="#5fd4e1" fill-opacity="1"><g transform="translate(267.145626, 250.271447)"><g><path d="M 2.78125 -23.4375 C 3.3125 -23.957031 3.988281 -24.21875 4.8125 -24.21875 C 5.632812 -24.21875 6.304688 -23.957031 6.828125 -23.4375 C 7.359375 -22.914062 7.625 -22.242188 7.625 -21.421875 C 7.625 -20.597656 7.359375 -19.914062 6.828125 -19.375 C 6.304688 -18.84375 5.632812 -18.578125 4.8125 -18.578125 C 3.988281 -18.578125 3.3125 -18.84375 2.78125 -19.375 C 2.257812 -19.914062 2 -20.597656 2 -21.421875 C 2 -22.242188 2.257812 -22.914062 2.78125 -23.4375 Z M 7.4375 0 L 2.125 0 L 2.125 -16.640625 L 7.4375 -16.640625 Z M 7.4375 0 "/></g></g></g></svg>